<svg width="985" height="156" viewBox="0 0 985 156" fill="none" xmlns="http://www.w3.org/2000/svg">
<path fill-rule="evenodd" clip-rule="evenodd" d="M433.138 563.441C487.358 614.867 575.258 614.867 629.478 563.441L1047.62 166.838C1101.86 115.402 1101.86 31.9987 1047.62 -19.4379C993.404 -70.8642 905.505 -70.8643 851.285 -19.4379L663.459 158.71C709.659 106.96 707.029 29.3701 655.57 -19.4379C601.35 -70.8642 513.45 -70.8643 459.23 -19.4379L41.0836 377.165C-13.1471 428.602 -13.1471 512.004 41.0836 563.441C95.3035 614.867 183.203 614.867 237.423 563.441L425.248 385.293C379.049 437.043 381.679 514.633 433.138 563.441Z" fill="#63BABA"/>
</svg>
