<svg width="1016" height="156" viewBox="0 0 1016 156" fill="none" xmlns="http://www.w3.org/2000/svg">
<path fill-rule="evenodd" clip-rule="evenodd" d="M-107.957 117.441C-53.7373 168.868 34.1624 168.868 88.3823 117.441L506.529 -279.162C560.76 -330.598 560.76 -414.001 506.529 -465.438C452.309 -516.864 364.409 -516.864 310.189 -465.438L-107.957 -68.835C-162.188 -17.3984 -162.188 66.0045 -107.957 117.441ZM360.825 45.617C415.045 97.0433 502.944 97.0433 557.164 45.617L975.311 -350.986C1029.54 -402.422 1029.54 -485.825 975.311 -537.262C921.091 -588.688 833.191 -588.688 778.972 -537.262L360.825 -140.659C306.594 -89.2226 306.594 -5.81964 360.825 45.617Z" fill="#63BABA"/>
</svg>
